<?xml version="1.0" standalone="no"?>
<!DOCTYPE svg PUBLIC "-//W3C//DTD SVG 20010904//EN"
 "http://www.w3.org/TR/2001/REC-SVG-20010904/DTD/svg10.dtd">
<svg version="1.0" xmlns="http://www.w3.org/2000/svg"
 width="480.000000pt" height="224.000000pt" viewBox="0 0 480.000000 224.000000"
 preserveAspectRatio="xMidYMid meet">

<g transform="translate(0.000000,224.000000) scale(0.100000,-0.100000)"
fill="#000000" stroke="none">
<path d="M1875 1444 c-264 -59 -471 -244 -698 -625 -35 -59 -67 -100 -82 -107
-32 -15 -135 -15 -225 -1 -74 11 -195 0 -245 -23 -32 -14 -65 -75 -65 -119 0
-43 58 -96 114 -104 23 -3 845 -5 1827 -3 l1786 3 49 30 c68 42 104 113 104
204 0 95 -31 156 -106 210 -106 76 -197 86 -435 51 -74 -11 -210 -29 -303 -41
-93 -11 -186 -27 -206 -35 -22 -9 -63 -44 -100 -86 -94 -105 -156 -122 -334
-93 -146 24 -172 41 -212 135 -17 41 -50 107 -72 145 -23 39 -50 86 -61 105
-28 51 -129 164 -190 214 -147 120 -373 179 -546 140z"/>
</g>
</svg>
