<svg width="1920" height="672" viewBox="0 0 1920 672" fill="none" xmlns="http://www.w3.org/2000/svg">
<path d="M0 671.207V26.2073C62.5779 6.93361 104.991 1.78433 190.5 0.207254C336.514 -1.66603 393.73 9.27874 497 28.2073C655.391 -0.83309 737.323 -2.48381 874 14.7073C1105.15 1.79798 1085.08 15.7867 1098 28.2073C1180.53 8.5614 1232.53 4.89851 1338 14.7073C1447.47 -0.101783 1488.49 8.80806 1557.5 28.2073L1557.55 28.1958C1625.17 13.9884 1663.1 6.0192 1722.5 28.2073C1840.38 58.3938 1871.72 118.715 1924.5 230.207V671.207H0Z" fill="url(#paint0_linear_4_39)"/>
<defs>
<linearGradient id="paint0_linear_4_39" x1="962.25" y1="0" x2="962.25" y2="671.207" gradientUnits="userSpaceOnUse">
<stop stop-color="#140A04"/>
<stop offset="1" stop-color="#482603"/>
</linearGradient>
</defs>
</svg>
