<?xml version="1.0" standalone="no"?>
<!DOCTYPE svg PUBLIC "-//W3C//DTD SVG 20010904//EN"
 "http://www.w3.org/TR/2001/REC-SVG-20010904/DTD/svg10.dtd">
<svg version="1.0" xmlns="http://www.w3.org/2000/svg"
 width="436.000000pt" height="156.000000pt" viewBox="0 0 436.000000 156.000000"
 preserveAspectRatio="xMidYMid meet">
<metadata>
Created by potrace 1.16, written by Peter Selinger 2001-2019
</metadata>
<g transform="translate(0.000000,156.000000) scale(0.100000,-0.100000)"
fill="#CF6E03" stroke="none">
<path d="M1209 1127 c-101 -35 -197 -114 -287 -237 -30 -41 -64 -84 -76 -96
-21 -20 -168 -64 -214 -64 -32 0 -111 -41 -118 -62 -17 -56 32 -119 111 -143
58 -17 109 -20 85 -5 -10 6 473 10 1372 10 958 0 1395 3 1415 11 68 26 133
119 133 192 0 78 -66 147 -140 147 -33 0 -175 -22 -267 -42 -50 -10 -55 -9
-125 24 -108 52 -126 57 -211 66 -168 18 -328 -39 -446 -157 l-67 -66 -209 -5
c-116 -2 -254 -4 -308 -5 l-99 0 -2 90 c-2 76 -7 98 -30 144 -33 64 -97 128
-157 157 -110 52 -126 57 -209 61 -70 3 -97 -1 -151 -20z"/>
</g>
</svg>
